<?xml version="1.0" encoding="UTF-8"?>
<svg version="1.1" viewBox="0 0 2048 2048" width="1280" height="1280" xmlns="http://www.w3.org/2000/svg">
<path transform="translate(1938,543)" d="m0 0h14l17 3 12 4 17 9 10 8 12 12 10 15 11 23 6 18 1 1v40h-2l-3 12-8 17-8 11-9 10h-2v2l-13 9-23 12-39 19-25 12-47 23-25 12-39 19-29 14-47 23-25 12-37 18-23 11-47 23-25 12-37 18-48 23-12 3-7 1h-25l-16-3-19-7-13-7v2l8 25 8 30 7 36 4 31 2 29v42l-2 30-4 32-5 27-7 30-9 31-11 31-12 29-11 24-10 19-6 11-13 23-16 25-11 16-10 14-22 28-24 28-15 16-33 33-8 7-15 13-14 12-11 9-21 16-17 12-19 13-17 11-25 15-23 13-23 12-35 17-45 19-33 12-38 12-37 10-40 9-41 7-39 5-35 3-42 2h-28l-41-2-32-3-30-4-28-5-33-7-41-11-37-12-35-14-29-13-26-13-24-14-15-9-15-10-17-12-17-13-17-14-10-9-12-11-28-28-7-8-12-14-10-13-11-15-16-24-12-20-12-23-8-16-11-26-9-25-2-6v-37l8-23 8-17 12-19 10-13 9-11 8-9-3-12-9-32-7-34-4-27-3-29v-31l4-16 4-10 7-11 11-12 8-7 14-8 14-5 24-3 8-5 3-6 1-234 2-18 4-14 7-16 9-14 11-13 12-10 14-9 15-6 15-4 7-1h27l15 3 14 5 14 7 12 9 10 9 9 10 8 13 7 15 5 19 1 9v103l3 48 5 44 6 36 6 28 4 17v4l35-17 36-16 37-16 37-15-1-7-5-23-3-21-1-14v-22l2-22 3-19 6-24 7-21 11-26 12-22 9-14 12-17 13-16 5-6h3l7 8 36 36-1 4-12 15-10 15-9 15-12 25-8 24-5 22-2 19v28l2 19 3 15v5l20-7 36-13 38-13 54-17 66-19 66-17 57-13 45-9 45-8 49-7 45-5 43-3 26-1h33l38 2 33 4 29 6 19 6 24 9 5-4h2l-4-16-2-17v-12l3-20 4-13 8-17 8-12 12-14 15-12 16-9 25-10 37-17 103-47 40-18 32-15 36-16 21-10 136-62 66-30 18-6zm4 65-8 2-12 5-37 17-35 16-27 12-15 7-41 19-68 31-68 31-92 42-8 4 2 4 10 11 9 13 8 16 6 20 2 18 5-1 38-19 23-11 26-13 23-11 53-26 35-17 29-14 19-9 38-19 23-11 35-17 23-11 21-10 12-7 5-5 5-7 2-7v-13l-7-17-6-10-4-5-8-5-6-2zm-1715 193-11 4-10 7-6 7-5 10-2 8-1 14-1 230-3 14-5 12-7 12-12 13-10 7-14 7-14 4-21 3-7 4-4 8v16l2 25 5 33 6 27 7 25 11 31 9 20 8 16 8 14 8 12 12 16 12 13 15 15 16 12 16 10 21 10 24 8 29 6 12 2h12l52-7 48-8 50-10 60-14 3-2-19-10-16-9-19-12-18-13-13-11-11-9-15-15h-2l-2-4-10-10-9-11-11-13-13-18-14-22-12-21-9-17-11-24-13-33-12-37-8-30-8-37-7-43-4-35-3-39-1-21v-102l-3-12-6-10-4-5-10-7-12-4zm1220 32-12 4-11 7v2h-2v2h-2l-8 13-3 11v5l9-5 10-6 7-2h10l12 4 8 7 6 12 1 12-3 10-5 8-5 5-6 4v1h8l9-2 17-9 9-10 4-8 3-10v-17l-5-14-8-11-9-7-11-5-4-1zm-275 127-58 3-57 6-49 7-49 9-57 12-58 14-48 13-41 12-49 15-63 21-38 14-2 1 2 5 10 16 14 19 2 2-1 5-11 9-13 11-22 18-5-5-11-14-9-13-10-16-7-12-7 1-30 12-35 15-29 13-26 12-24 11-1 3 13 29 11 22 10 17 12 18 14 19 13 15 14 15 14 13 14 11 13 10 17 11 18 10 16 8 24 10 24 8 27 7 12 2 41-13 36-12 35-12 47-17 35-14 16-6 38-16 35-15 36-16 10-8 12-12 9-11 11-13 12-17 10-16 12-22 10-22 8-21 8-28 6-29 4-20 4-13 7-14 9-12 4-5 3-2v-2l4-2 13-9 14-7 14-4 18-2 17 1 14 3 15 6 14 9 10 8 8 9 9 14 6 13 4 14 1 6 1 21 4-2 16-16 9-11 8-9 9-13 8-14 5-15v-13l-5-10-8-7-12-7-19-7-20-5-27-4-26-2-23-1zm6 96-12 3-9 7-4 5-4 9-7 38-7 28-9 27-13 31-4 9 6-2 20-12 23-14 23-15 12-8 7-14 5-18 4-20 2-13v-16l-5-12-7-7-8-4zm178 52-6 6v2h-2l-7 8-23 23-8 7-13 11-11 9-16 12-19 14-17 12-24 16-17 11-35 21-26 15-24 13-12 7-80 40-20 9-29 13-25 11-43 18-33 13-39 15-50 18-44 15-43 14-34 10-57 16-43 11-37 9-61 13-55 10-47 7-53 6-39 3-20 1h-63l-27-2-35-5h-5l3 6 11 15 10 13 13 16 14 15 1 2h2l2 4 12 12 8 7 12 11 28 22 17 12 20 13 26 15 27 14 27 12 31 12 30 10 28 8 35 8 35 6 32 4 37 3 19 1h38l49-3 36-4 38-6 38-8 35-9 30-9 38-13 30-12 19-8 15-7 38-19 23-13 20-12 22-14 20-14 19-14 14-11 11-9 13-11 10-9 16-14v-2l4-2 12-12v-2l4-2 7-8 9-9v-2h2l7-8 9-11 11-13 16-21 14-20 11-17 9-15 12-21 14-27 14-32 10-27 8-25 9-36 4-21 4-28 2-22v-62l-1-9zm-1271 281-7 9-6 10-6 15-1 4v14l5 9 10 9 16 8 15 5 22 5 20 3h4l-2-4-8-7-17-17-9-11-12-15-12-18-11-19z"/>
<path transform="translate(508,191)" d="m0 0 18 1 14 3 12 5 13 7 13 10 10 11 9 14 6 13 4 14 1 6v26l-4 17-8 18-9 13-10 11-15 11-15 7-17 5-7 1h-22l-16-3-15-6-14-8-12-11-8-8-9-14-7-15-4-17-1-9v-9l2-16 5-16 8-16 11-14 7-7 12-9 15-8 16-5zm0 65-10 3-8 6-5 6-3 6-1 5v12l3 9 6 8 9 6 6 2h13l10-4 8-6 5-8 2-6v-14l-5-12-7-7-11-5-5-1z"/>
<path transform="translate(285,415)" d="m0 0 18 1 16 4 16 7 13 9 12 11 9 12 7 12 6 17 2 11v26l-4 17-8 18-9 13-6 7h-2l-1 3-12 9-12 7-17 6-15 3h-21l-16-3-15-6-11-6-10-8-13-13-9-14-7-15-4-17-1-17 2-16 3-12 6-14 7-11 8-10 8-8 16-11 13-6 14-4zm-1 65-10 3-8 6-5 6-4 10v14l4 10 7 8 10 5 3 1h13l12-5 8-8 4-8 1-3v-14l-5-12-7-7-11-5-5-1z"/>
<path transform="translate(648,393)" d="m0 0h3l7 8 36 36-1 4-10 11-11 14-13 17-8 12-13 21-11 21-8 20-6 20-3 17-2 13-1 1h-63l-1-1 1-19 4-23 6-22 7-19 8-18 13-25 15-24 12-17 10-13 13-16 9-10z"/>
<path transform="translate(225,1311)" d="m0 0h62l2 2 5 17 11 21 10 13 9 10 16 16 14 11 15 11 1 2-7 11-28 42-4-2-17-12-16-13-13-12-14-14-11-14-9-12-9-15-8-16-5-13-5-20v-12z"/>
<path transform="translate(577,1215)" d="m0 0h62l2 3v60l-1 2h-64l-1-1v-62z"/>
<path transform="translate(417,639)" d="m0 0h62l2 3v60l-1 2h-64l-1-1v-62z"/>
<path transform="translate(385,927)" d="m0 0h62l2 3v60l-1 2h-64l-1-1v-62z"/>
<path transform="translate(65,607)" d="m0 0h62l2 3-1 62h-64l-1-1v-62z"/>
<path transform="translate(2047,633)" d="m0 0"/>
</svg>
